<?xml version="1.0" encoding="UTF-8"?>
<svg id="Layer_2" data-name="Layer 2" xmlns="http://www.w3.org/2000/svg" viewBox="0 0 22 21.9">
  <defs>
    <style>
      .cls-1 {
        fill: #ff8100;
      }
    </style>
  </defs>
  <g id="Layer_3" data-name="Layer 3">
    <g>
      <path class="cls-1" d="M11,4.6c-3.5,0-6.4,2.8-6.4,6.3s2.9,6.3,6.4,6.3,6.4-2.8,6.4-6.3-2.9-6.3-6.4-6.3ZM11,14.8c-2.2,0-4-1.7-4-3.9s1.8-3.9,4-3.9,4,1.7,4,3.9-1.8,3.9-4,3.9Z"/>
      <path class="cls-1" d="M4.3,2.8l2.4,2.4-1.3,1.3-2.4-2.4c-.3-.4-.4-1,0-1.4h0c.3-.4.9-.4,1.3,0h0Z"/>
      <path class="cls-1" d="M1,9.9h3v1.9H1c-.5,0-1-.4-1-1h0c0-.5.4-.9,1-.9h0Z"/>
      <path class="cls-1" d="M3.3,17.4l2.1-2.1,1.3,1.3-2.1,2.1c-.4.4-1,.4-1.4,0h0c-.4-.4-.4-.9,0-1.3h0Z"/>
      <path class="cls-1" d="M15.3,5.2l2.1-2.1c.4-.4,1-.4,1.4,0h0c.4.4.4,1,0,1.4l-2.1,2.1-1.3-1.3h0Z"/>
      <path class="cls-1" d="M10,20.9v-3h1.9v3c0,.5-.4,1-1,1h0c-.5,0-.9-.4-.9-1h0Z"/>
      <path class="cls-1" d="M10,3.9V.9c0-.5.4-.9.9-.9h0c.6,0,1,.4,1,.9v3h-1.9Z"/>
      <path class="cls-1" d="M17.3,18.7l-2.1-2.1,1.3-1.3,2.1,2.1c.4.4.4,1,0,1.4h0c-.4.4-.9.4-1.3,0h0Z"/>
      <path class="cls-1" d="M21,11.9h-3v-1.9h3c.5,0,1,.4,1,1h0c0,.5-.4.9-1,.9h0Z"/>
    </g>
  </g>
</svg>